<svg xmlns="http://www.w3.org/2000/svg" width="181" height="209" viewBox="0 0 680 785" role="img"><metadata><rdf:RDF xmlns:rdf="http://www.w3.org/1999/02/22-rdf-syntax-ns#" xmlns:dc="http://purl.org/dc/elements/1.1/"><rdf:Description><dc:creator>RealFaviconGenerator</dc:creator><dc:source>https://realfavicongenerator.net</dc:source></rdf:Description></rdf:RDF></metadata><title>zeitR hex sticker</title><desc>Hexagonal package sticker for zeitR showing a stylised actigraphy signal</desc><defs>
    <clipPath id="hc11">
      <polygon points="340,0 680,196 680,589 340,785 0,589 0,196"></polygon>
    </clipPath>
  </defs><polygon points="340,0 680,196 680,589 340,785 0,589 0,196" fill="#2D2640"></polygon><g clip-path="url(#hc11)">

    <line x1="60" y1="430" x2="620" y2="430" stroke="#E8D5B0" stroke-width="1.5" opacity="0.15"></line>

    <rect x="63" y="418" width="6" height="12" fill="#4A3F6B" opacity="0.7"></rect>
    <rect x="73" y="414" width="6" height="16" fill="#4A3F6B" opacity="0.7"></rect>
    <rect x="83" y="420" width="6" height="10" fill="#4A3F6B" opacity="0.6"></rect>
    <rect x="93" y="416" width="6" height="14" fill="#4A3F6B" opacity="0.7"></rect>
    <rect x="103" y="422" width="6" height="8" fill="#4A3F6B" opacity="0.6"></rect>
    <rect x="113" y="418" width="6" height="12" fill="#4A3F6B" opacity="0.7"></rect>
    <rect x="123" y="413" width="6" height="17" fill="#4A3F6B" opacity="0.7"></rect>
    <rect x="133" y="420" width="6" height="10" fill="#4A3F6B" opacity="0.6"></rect>
    <rect x="143" y="424" width="6" height="6" fill="#4A3F6B" opacity="0.5"></rect>
    <rect x="153" y="416" width="6" height="14" fill="#4A3F6B" opacity="0.7"></rect>
    <rect x="163" y="421" width="6" height="9" fill="#4A3F6B" opacity="0.6"></rect>
    <rect x="173" y="418" width="6" height="12" fill="#4A3F6B" opacity="0.7"></rect>
    <rect x="183" y="414" width="6" height="16" fill="#4A3F6B" opacity="0.7"></rect>
    <rect x="193" y="419" width="6" height="11" fill="#4A3F6B" opacity="0.65"></rect>

    <rect x="205" y="406" width="7" height="24" fill="#E8D5B0" opacity="0.75"></rect>
    <rect x="215" y="396" width="7" height="34" fill="#E8D5B0" opacity="0.8"></rect>
    <rect x="225" y="382" width="7" height="48" fill="#F0A500" opacity="0.8"></rect>
    <rect x="235" y="394" width="7" height="36" fill="#E8D5B0" opacity="0.75"></rect>
    <rect x="245" y="368" width="7" height="62" fill="#F0A500" opacity="0.85"></rect>
    <rect x="255" y="382" width="7" height="48" fill="#F0A500" opacity="0.8"></rect>
    <rect x="265" y="354" width="7" height="76" fill="#C25E2A" opacity="0.85"></rect>
    <rect x="275" y="370" width="7" height="60" fill="#F0A500" opacity="0.82"></rect>
    <rect x="285" y="342" width="7" height="88" fill="#C25E2A" opacity="0.88"></rect>

    <rect x="297" y="322" width="8" height="108" fill="#C25E2A" opacity="0.9"></rect>
    <rect x="308" y="348" width="8" height="82" fill="#C25E2A" opacity="0.85"></rect>
    <rect x="319" y="302" width="8" height="128" fill="#C25E2A" opacity="0.95"></rect>
    <rect x="330" y="330" width="8" height="100" fill="#C25E2A" opacity="0.9"></rect>
    <rect x="341" y="286" width="8" height="144" fill="#C25E2A" opacity="0.95"></rect>
    <rect x="352" y="316" width="8" height="114" fill="#C25E2A" opacity="0.92"></rect>
    <rect x="363" y="295" width="8" height="135" fill="#C25E2A" opacity="0.95"></rect>
    <rect x="374" y="338" width="8" height="92" fill="#C25E2A" opacity="0.88"></rect>
    <rect x="385" y="280" width="8" height="150" fill="#C25E2A" opacity="0.95"></rect>
    <rect x="396" y="310" width="8" height="120" fill="#C25E2A" opacity="0.92"></rect>
    <rect x="407" y="288" width="8" height="142" fill="#C25E2A" opacity="0.95"></rect>
    <rect x="418" y="328" width="8" height="102" fill="#C25E2A" opacity="0.88"></rect>
    <rect x="429" y="300" width="8" height="130" fill="#C25E2A" opacity="0.92"></rect>
    <rect x="440" y="322" width="8" height="108" fill="#C25E2A" opacity="0.9"></rect>
    <rect x="451" y="308" width="8" height="122" fill="#C25E2A" opacity="0.92"></rect>
    <rect x="462" y="346" width="8" height="84" fill="#F0A500" opacity="0.88"></rect>
    <rect x="473" y="318" width="8" height="112" fill="#C25E2A" opacity="0.9"></rect>
    <rect x="484" y="340" width="8" height="90" fill="#F0A500" opacity="0.85"></rect>

    <rect x="496" y="352" width="7" height="78" fill="#F0A500" opacity="0.85"></rect>
    <rect x="506" y="366" width="7" height="64" fill="#F0A500" opacity="0.8"></rect>
    <rect x="516" y="358" width="7" height="72" fill="#F0A500" opacity="0.82"></rect>
    <rect x="526" y="376" width="7" height="54" fill="#F0A500" opacity="0.78"></rect>
    <rect x="536" y="386" width="7" height="44" fill="#E8D5B0" opacity="0.75"></rect>
    <rect x="546" y="372" width="7" height="58" fill="#F0A500" opacity="0.78"></rect>
    <rect x="556" y="392" width="7" height="38" fill="#E8D5B0" opacity="0.72"></rect>
    <rect x="566" y="400" width="7" height="30" fill="#E8D5B0" opacity="0.7"></rect>
    <rect x="576" y="394" width="7" height="36" fill="#E8D5B0" opacity="0.72"></rect>

    <rect x="588" y="418" width="6" height="12" fill="#4A3F6B" opacity="0.7"></rect>
    <rect x="598" y="414" width="6" height="16" fill="#4A3F6B" opacity="0.7"></rect>
    <rect x="608" y="420" width="6" height="10" fill="#4A3F6B" opacity="0.65"></rect>

  </g><text x="340" y="640" text-anchor="middle" font-family="'DM Sans', system-ui, sans-serif" font-size="105" font-weight="700" fill="#E8D5B0" letter-spacing="-2">zeit<tspan fill="#F0A500">R</tspan></text><polygon points="340,0 680,196 680,589 340,785 0,589 0,196" fill="none" stroke="#F0A500" stroke-width="16"></polygon></svg>