<svg xmlns="http://www.w3.org/2000/svg" version="1.1" xmlns:xlink="http://www.w3.org/1999/xlink" id="Layer_1" viewBox="0 0 384 441.23" width="384" height="441.23"><metadata><rdf:RDF xmlns:rdf="http://www.w3.org/1999/02/22-rdf-syntax-ns#" xmlns:dc="http://purl.org/dc/elements/1.1/"><rdf:Description><dc:creator>RealFaviconGenerator</dc:creator><dc:source>https://realfavicongenerator.net</dc:source></rdf:Description></rdf:RDF></metadata><defs>
    <style>
      .st0, .st1, .st2 {
        fill: none;
      }

      .st3, .st4, .st5, .st6, .st7, .st8, .st9, .st10, .st11, .st12, .st13, .st14, .st15, .st2, .st16, .st17, .st18, .st19, .st20, .st21 {
        isolation: isolate;
      }

      .st4, .st13, .st14, .st15 {
        fill: #e8d5b0;
      }

      .st4, .st16 {
        font-family: Helvetica-Bold, Helvetica;
        font-size: 62px;
        font-weight: 700;
      }

      .st5, .st6, .st7, .st8, .st16 {
        fill: #f0a500;
      }

      .st5, .st18 {
        opacity: .85;
      }

      .st6 {
        opacity: .82;
      }

      .st7 {
        opacity: .78;
      }

      .st8 {
        opacity: .8;
      }

      .st9 {
        opacity: .6;
      }

      .st9, .st10, .st11, .st12 {
        fill: #4a3f6b;
      }

      .st10 {
        opacity: .65;
      }

      .st11 {
        opacity: .5;
      }

      .st12, .st15 {
        opacity: .7;
      }

      .st13 {
        opacity: .75;
      }

      .st14 {
        opacity: .72;
      }

      .st1 {
        stroke: #f0a500;
        stroke-width: 8px;
      }

      .st22 {
        fill: #3a3050;
      }

      .st2 {
        opacity: .15;
        stroke: #e8d5b0;
      }

      .st17 {
        opacity: .95;
      }

      .st17, .st18, .st19, .st20, .st21 {
        fill: #c25e2a;
      }

      .st19 {
        opacity: .92;
      }

      .st20 {
        opacity: .88;
      }

      .st21 {
        opacity: .9;
      }

      .st23 {
        clip-path: url(#clippath);
      }
    </style>
    <clipPath id="clippath">
      <polygon class="st0" points="192 4.61 380 112.61 380 328.61 192 436.61 4 328.61 4 112.61 192 4.61"></polygon>
    </clipPath>
  </defs><polygon class="st22" points="192 4.61 380 112.61 380 328.61 192 436.61 4 328.61 4 112.61 192 4.61"></polygon><g class="st23">
    <g>
      <line class="st2" x1="4" y1="286.61" x2="380" y2="286.61"></line>
      <rect class="st12" x="10" y="279.61" width="4" height="8"></rect>
      <rect class="st12" x="17" y="276.61" width="4" height="11"></rect>
      <rect class="st9" x="24" y="280.61" width="4" height="7"></rect>
      <rect class="st12" x="31" y="277.61" width="4" height="10"></rect>
      <rect class="st9" x="38" y="281.61" width="4" height="6"></rect>
      <rect class="st12" x="45" y="279.61" width="4" height="8"></rect>
      <rect class="st12" x="52" y="276.61" width="4" height="11"></rect>
      <rect class="st9" x="59" y="280.61" width="4" height="7"></rect>
      <rect class="st11" x="66" y="282.61" width="4" height="5"></rect>
      <rect class="st12" x="73" y="277.61" width="4" height="10"></rect>
      <rect class="st13" x="82" y="270.61" width="5" height="17"></rect>
      <rect class="st8" x="90" y="262.61" width="5" height="25"></rect>
      <rect class="st5" x="98" y="251.61" width="5" height="36"></rect>
      <rect class="st18" x="106" y="237.61" width="5" height="50"></rect>
      <rect class="st20" x="114" y="225.61" width="5" height="62"></rect>
      <rect class="st21" x="124" y="208.61" width="6" height="79"></rect>
      <rect class="st18" x="133" y="224.61" width="6" height="63"></rect>
      <rect class="st17" x="142" y="194.61" width="6" height="93"></rect>
      <rect class="st21" x="151" y="213.61" width="6" height="74"></rect>
      <rect class="st17" x="160" y="184.61" width="6" height="103"></rect>
      <rect class="st19" x="169" y="205.61" width="6" height="82"></rect>
      <rect class="st17" x="178" y="189.61" width="6" height="98"></rect>
      <rect class="st20" x="187" y="218.61" width="6" height="69"></rect>
      <rect class="st17" x="196" y="180.61" width="6" height="107"></rect>
      <rect class="st19" x="205" y="201.61" width="6" height="86"></rect>
      <rect class="st17" x="214" y="183.61" width="6" height="104"></rect>
      <rect class="st20" x="223" y="214.61" width="6" height="73"></rect>
      <rect class="st19" x="232" y="193.61" width="6" height="94"></rect>
      <rect class="st21" x="241" y="208.61" width="6" height="79"></rect>
      <rect class="st19" x="250" y="198.61" width="6" height="89"></rect>
      <rect class="st5" x="261" y="224.61" width="5" height="63"></rect>
      <rect class="st8" x="269" y="238.61" width="5" height="49"></rect>
      <rect class="st6" x="277" y="231.61" width="5" height="56"></rect>
      <rect class="st7" x="285" y="248.61" width="5" height="39"></rect>
      <rect class="st13" x="293" y="257.61" width="5" height="30"></rect>
      <rect class="st7" x="301" y="244.61" width="5" height="43"></rect>
      <rect class="st14" x="309" y="264.61" width="5" height="23"></rect>
      <rect class="st15" x="317" y="271.61" width="5" height="16"></rect>
      <rect class="st12" x="328" y="279.61" width="4" height="8"></rect>
      <rect class="st12" x="335" y="276.61" width="4" height="11"></rect>
      <rect class="st10" x="342" y="280.61" width="4" height="7"></rect>
      <rect class="st12" x="349" y="278.61" width="4" height="9"></rect>
      <rect class="st9" x="356" y="281.61" width="4" height="6"></rect>
      <rect class="st10" x="363" y="279.61" width="4" height="8"></rect>
      <rect class="st9" x="370" y="281.61" width="4" height="6"></rect>
    </g>
  </g><g class="st3">
    <text class="st4" transform="translate(117.94 359.61)"><tspan x="0" y="0">zeit</tspan></text>
    <text class="st16" transform="translate(221.29 359.61)"><tspan x="0" y="0">R</tspan></text>
  </g><polygon class="st1" points="192 4.61 380 112.61 380 328.61 192 436.61 4 328.61 4 112.61 192 4.61"></polygon></svg>